<svg width="150" height="150" viewBox="0 0 150 150" fill="none" xmlns="http://www.w3.org/2000/svg">
    <path d="M59.1699 103.418C70.2529 118.732 74.2266 137.081 74.4912 149.498C33.7471 149.226 0.770095 116.246 0.501652 75.5012C29.6452 75.6415 48.0165 88.0072 59.1699 103.418ZM59.98 102.832C49.9122 88.9209 34.0599 77.4825 9.98819 75C34.0599 72.5175 49.9122 61.0791 59.98 47.1681C69.2168 34.4055 73.5726 19.5811 74.9759 7.72365C76.309 19.5812 80.5943 34.4052 89.8071 47.1677C99.8498 61.0798 115.732 72.5176 139.948 75C115.732 77.4824 99.8498 88.9202 89.8071 102.832C80.5943 115.595 76.309 130.419 74.9759 142.276C73.5726 130.419 69.2168 115.594 59.98 102.832ZM90.6179 46.5823C79.5633 31.2685 75.6873 12.9186 75.5054 0.501679C116.251 0.772365 149.23 33.7526 149.498 74.4988C120.155 74.3595 101.742 61.9924 90.6179 46.5823Z" fill="#131A20" stroke="#D9D9D9"/>
</svg>